<?xml version="1.0" standalone="no"?>
<!DOCTYPE svg PUBLIC "-//W3C//DTD SVG 20010904//EN"
 "http://www.w3.org/TR/2001/REC-SVG-20010904/DTD/svg10.dtd">
<svg version="1.0" xmlns="http://www.w3.org/2000/svg"
 width="260.000000pt" height="260.000000pt" viewBox="0 0 260.000000 260.000000"
 preserveAspectRatio="xMidYMid meet">
<metadata>
Created by potrace 1.11, written by Peter Selinger 2001-2013
</metadata>
<g transform="translate(0.000000,260.000000) scale(0.100000,-0.100000)"
fill="#000000" stroke="none">
<path d="M1035 2161 c-3 -5 -13 -10 -23 -10 -40 -1 -52 -5 -52 -15 0 -6 -5 -4
-10 4 -7 11 -10 11 -10 2 0 -7 -4 -11 -8 -8 -5 3 -19 -2 -32 -11 -13 -10 -33
-18 -43 -18 -10 -1 -22 -7 -27 -14 -4 -7 -9 -12 -11 -11 -12 6 -88 -34 -82
-43 4 -6 1 -7 -6 -3 -7 5 -19 0 -27 -10 -9 -11 -12 -12 -8 -4 7 13 6 13 -12 0
-10 -8 -25 -22 -32 -30 -12 -13 -13 -13 -7 0 4 8 -3 4 -14 -9 -12 -13 -21 -20
-21 -16 0 4 -25 -19 -55 -50 -30 -31 -55 -60 -55 -66 0 -6 -3 -8 -7 -6 -8 5
-32 -17 -35 -30 -5 -28 -12 -43 -19 -43 -5 0 -9 -7 -9 -16 0 -8 -4 -12 -10 -9
-5 3 -10 -3 -10 -15 0 -11 -7 -23 -15 -26 -8 -4 -13 -10 -10 -14 3 -5 -1 -14
-8 -22 -17 -17 -31 -49 -28 -65 1 -7 -3 -13 -9 -13 -5 0 -10 -8 -10 -18 0 -10
-6 -24 -12 -31 -11 -11 -10 -12 2 -6 12 7 12 5 -1 -11 -9 -10 -15 -27 -14 -37
2 -9 -1 -15 -6 -11 -5 3 -9 -8 -9 -23 0 -16 -6 -35 -12 -42 -10 -11 -10 -13 0
-7 6 4 12 2 12 -3 0 -6 -6 -11 -12 -11 -9 0 -8 -4 2 -10 12 -8 12 -10 1 -10
-10 0 -11 -3 -2 -14 9 -11 9 -15 -1 -19 -10 -4 -10 -6 0 -6 6 -1 12 -8 12 -17
0 -9 -5 -13 -12 -9 -7 4 -6 1 2 -7 10 -8 15 -28 14 -50 -1 -21 3 -38 8 -38 6
0 8 -7 4 -15 -3 -8 1 -21 9 -29 8 -7 11 -16 8 -20 -3 -3 2 -8 11 -12 9 -3 16
-15 16 -27 0 -11 3 -18 6 -14 5 5 24 -9 68 -48 6 -5 22 -12 36 -14 14 -1 28
-8 32 -14 4 -7 11 -7 21 2 12 9 16 9 19 0 3 -8 9 -9 19 -4 7 5 28 10 46 11 18
0 40 7 50 15 11 9 14 9 9 2 -5 -9 -2 -11 8 -7 9 3 13 10 10 15 -3 5 2 9 10 9
18 0 77 55 69 64 -4 3 1 6 10 6 15 0 22 -11 18 -32 0 -5 6 -8 14 -8 8 0 15 -7
15 -16 0 -8 4 -13 9 -9 5 3 17 -2 26 -12 10 -9 27 -18 38 -18 12 -1 23 -7 25
-13 2 -7 12 -12 22 -12 10 0 20 -5 22 -12 2 -6 13 -12 24 -12 11 -1 24 -5 31
-9 6 -4 23 -8 37 -9 14 -1 26 -8 26 -14 0 -7 8 -10 20 -7 13 3 20 0 20 -8 0
-12 2 -12 9 -1 7 11 9 11 14 -2 4 -10 13 -13 23 -9 10 4 15 2 11 -3 -3 -6 9
-11 26 -12 17 -2 34 -7 37 -12 3 -5 20 -10 38 -12 18 -1 32 -7 32 -13 0 -5 5
-3 10 5 7 12 10 12 10 1 0 -7 6 -11 15 -7 8 3 15 0 15 -5 0 -6 9 -9 20 -6 11
3 20 2 20 -2 0 -9 72 -7 86 2 7 4 15 0 18 -9 5 -12 10 -14 20 -5 7 6 15 9 18
6 6 -7 77 -7 103 -1 11 2 24 5 28 5 5 1 6 5 3 10 -3 4 6 6 21 3 18 -3 24 -1
19 6 -5 8 -1 10 9 5 12 -4 13 -8 5 -13 -7 -4 -10 -13 -6 -19 4 -6 2 -9 -7 -5
-16 6 -42 -21 -33 -35 3 -5 -1 -12 -10 -15 -9 -4 -14 -13 -10 -21 3 -8 2 -15
-2 -15 -4 0 -7 -12 -6 -28 1 -15 -3 -33 -9 -40 -6 -8 -6 -12 2 -12 6 0 11 -5
11 -11 0 -5 -6 -7 -12 -4 -7 4 -6 1 3 -7 9 -7 15 -21 13 -30 -1 -10 2 -18 7
-18 5 0 9 -4 9 -10 0 -15 33 -50 47 -50 7 0 13 -3 13 -8 0 -4 9 -13 21 -20 17
-11 20 -11 14 0 -6 10 -5 11 6 1 7 -7 23 -13 35 -13 13 0 26 -5 29 -10 4 -7
13 -7 24 0 12 6 22 5 29 -2 8 -8 15 -8 24 -1 7 6 26 11 42 11 15 0 31 4 35 9
3 6 14 9 24 7 9 -1 17 3 17 9 0 5 3 8 6 4 3 -3 17 5 31 19 13 13 28 24 34 24
6 0 7 5 4 10 -3 6 -2 10 3 10 5 0 19 20 32 45 13 25 27 45 32 45 5 0 7 4 4 9
-3 5 1 12 10 15 10 4 14 14 11 26 -3 13 -1 18 6 13 6 -4 8 0 4 10 -3 8 0 18 7
20 14 6 15 35 1 56 -5 9 -4 12 1 8 13 -7 32 23 28 46 -1 9 2 17 7 17 4 0 6 7
3 15 -4 8 -11 12 -17 8 -6 -3 -7 -1 -3 6 4 6 11 9 16 6 5 -3 8 7 6 22 -1 16 2
34 7 41 6 8 6 17 -2 25 -8 10 -7 17 1 25 9 9 9 12 0 12 -9 0 -10 5 -3 18 6 10
6 24 1 32 -5 8 -6 19 -2 24 11 18 11 60 0 73 -6 7 -7 13 -3 13 4 0 1 8 -6 17
-10 12 -11 15 -1 9 10 -6 11 -1 6 21 -4 15 -7 36 -6 45 0 10 -4 20 -9 24 -6 4
-6 11 2 20 6 8 7 14 2 14 -5 0 -10 15 -11 33 -2 17 -7 34 -12 35 -6 2 -10 15
-10 28 0 14 -7 27 -15 30 -8 4 -12 10 -9 15 3 5 0 9 -5 9 -6 0 -11 6 -11 13 0
7 -8 22 -18 33 -10 11 -22 32 -26 47 -3 15 -10 25 -15 23 -5 -3 -11 4 -14 15
-4 15 -11 20 -21 16 -9 -4 -16 -2 -16 3 0 6 5 10 11 10 5 0 7 5 4 10 -4 6 -11
7 -17 4 -6 -4 -9 -1 -6 6 4 12 -54 80 -69 80 -5 0 -19 16 -33 34 -14 19 -27
33 -29 31 -2 -2 -17 9 -35 25 -17 17 -36 30 -42 30 -6 0 -17 7 -24 15 -7 9
-19 14 -26 11 -8 -3 -17 1 -21 8 -12 20 -52 38 -66 30 -6 -4 -9 -4 -5 1 11 12
-21 38 -47 38 -13 0 -23 5 -22 11 1 6 -10 11 -25 10 -15 0 -25 3 -22 7 4 6
-26 22 -35 19 -2 -1 -8 4 -12 12 -7 10 -9 10 -9 -2 -1 -13 -2 -13 -13 0 -7 8
-23 17 -37 19 -14 1 -27 6 -30 10 -3 3 -16 8 -30 9 -14 2 -27 8 -28 13 -2 6
-11 4 -20 -3 -9 -7 -13 -8 -9 -2 6 11 -24 21 -75 27 -10 1 -18 5 -18 9 0 4 -5
8 -11 8 -6 0 -7 -6 -2 -12 4 -7 -5 -5 -20 5 -15 9 -27 13 -27 7 0 -5 -5 -10
-11 -10 -5 0 -8 4 -5 9 8 12 -27 8 -36 -4 -5 -6 -8 -6 -8 1 0 7 -11 11 -25 10
-14 0 -25 -4 -25 -8 0 -7 -34 -3 -49 7 -5 3 -12 1 -16 -4z m-91 -419 c3 -5 -1
-9 -9 -9 -8 0 -12 4 -9 9 3 4 7 8 9 8 2 0 6 -4 9 -8z m1096 -18 c0 -8 -19 -13
-24 -6 -3 5 1 9 9 9 8 0 15 -2 15 -3z m-810 -24 c0 -5 -5 -10 -11 -10 -5 0 -7
5 -4 10 3 6 8 10 11 10 2 0 4 -4 4 -10z m-285 -100 c3 -5 1 -10 -4 -10 -6 0
-11 5 -11 10 0 6 2 10 4 10 3 0 8 -4 11 -10z m-90 -20 c-3 -5 -12 -10 -18 -10
-7 0 -6 4 3 10 19 12 23 12 15 0z m300 0 c-3 -5 -12 -10 -18 -10 -7 0 -6 4 3
10 19 12 23 12 15 0z m-325 -40 c0 -5 -5 -10 -11 -10 -5 0 -7 5 -4 10 3 6 8
10 11 10 2 0 4 -4 4 -10z m274 -2 c-3 -4 -11 -5 -19 -1 -21 7 -19 12 4 10 11
0 18 -5 15 -9z m86 -38 c0 -5 -5 -10 -11 -10 -5 0 -7 5 -4 10 3 6 8 10 11 10
2 0 4 -4 4 -10z m120 -40 c0 -5 -5 -10 -11 -10 -5 0 -7 5 -4 10 3 6 8 10 11
10 2 0 4 -4 4 -10z m157 -35 c0 -8 -4 -12 -9 -9 -5 3 -6 10 -3 15 9 13 12 11
12 -6z m317 -3 c3 -5 -1 -9 -9 -9 -8 0 -12 4 -9 9 3 4 7 8 9 8 2 0 6 -4 9 -8z
m-777 -27 c0 -8 -4 -12 -9 -9 -5 3 -6 10 -3 15 9 13 12 11 12 -6z m-187 -149
c0 -2 -8 -10 -17 -17 -16 -13 -17 -12 -4 4 13 16 21 21 21 13z m1070 -46 c0
-5 -2 -10 -4 -10 -3 0 -8 5 -11 10 -3 6 -1 10 4 10 6 0 11 -4 11 -10z"/>
</g>
</svg>
